<?xml version="1.0" ?><svg enable-background="new 0 0 64 64" height="104px" id="Layer_1" version="1.1" viewBox="0 0 64 64" width="104px" xml:space="preserve" xmlns="http://www.w3.org/2000/svg" xmlns:xlink="http://www.w3.org/1999/xlink"><circle cx="32" cy="32" fill="#F5CF87" r="32"/><g><circle cx="32" cy="32" fill="black" r="22"/></g><path d="M32,19c8.271,0,15,6.729,15,15s-6.729,15-15,15s-15-6.729-15-15S23.729,19,32,19 M32,12  c-12.15,0-22,9.85-22,22s9.85,22,22,22s22-9.85,22-22S44.15,12,32,12L32,12z" fill="#231F20" opacity="0.2"/><g><path d="M32,17c8.271,0,15,6.729,15,15s-6.729,15-15,15s-15-6.729-15-15S23.729,17,32,17 M32,10   c-12.15,0-22,9.85-22,22s9.85,22,22,22s22-9.85,22-22S44.15,10,32,10L32,10z" fill="#4F5D73"/></g><circle cx="42" cy="30.987" fill="#231F20" opacity="0.2" r="2"/><circle cx="32" cy="23" fill="#231F20" opacity="0.2" r="2"/><circle cx="22" cy="30.987" fill="#231F20" opacity="0.2" r="2"/><circle cx="26" cy="42" fill="#231F20" opacity="0.2" r="2"/><circle cx="38" cy="42" fill="#231F20" opacity="0.2" r="2"/><circle cx="42" cy="29.987" fill="#C75C5C" r="2"/><circle cx="32" cy="22" fill="#C75C5C" r="2"/><circle cx="32" cy="34" fill="#231F20" opacity="0.2" r="5"/><circle cx="32" cy="32" fill="#4F5D73" r="5"/><circle cx="22" cy="29.987" fill="#C75C5C" r="2"/><circle cx="26" cy="41" fill="#C75C5C" r="2"/><circle cx="38" cy="41" fill="#C75C5C" r="2"/></svg>